
<svg version="1.0" id="katman_1" xmlns="http://www.w3.org/2000/svg" xmlns:xlink="http://www.w3.org/1999/xlink" x="0px" y="0px"
	 viewBox="0 0 1190.6 841.9" style="enable-background:new 0 0 1190.6 841.9;" xml:space="preserve">
<style type="text/css">
	.st0{fill:#5E464D;}
	.st1{fill:#E4A663;}
	.st2{fill:#FFFFFF;}
</style>
<g id="Layer_2">
	<g id="Layer_8">
		<path class="st0" d="M430.6,734.1c-3.6,5-8.1,9.2-13.2,12.4c-4.8,2.9-10.3,4.4-15.9,4.4c-5.4,0.1-10.8-1.2-15.5-3.8
			c-4.6-2.6-8.6-6.3-11.5-10.8c-3.3-5.1-5.7-10.8-7.1-16.8c-1.7-7.2-2.5-14.5-2.5-21.9c0-5.9,0.7-11.7,1.9-17.5
			c1.3-6,3.2-11.8,5.7-17.3c2.5-5.6,5.5-11,9.1-16c3.4-4.9,7.5-9.3,12.1-13c4.5-3.7,9.6-6.7,15-8.8c5.6-2.2,11.6-3.3,17.6-3.3
			c3.2,0,6.4,0.5,9.5,1.5c2.8,0.9,5.4,2.3,7.6,4.2c2.1,1.9,3.8,4.1,4.9,6.7c1.3,2.8,1.9,5.8,1.9,8.9c0,3.1-0.6,6.2-1.8,9
			c-1.2,2.9-2.8,5.7-4.7,8.2c-2,2.6-4.4,5-7,7.1c-2.6,2.1-5.3,3.9-8.3,5.5c-2.8,1.5-5.8,2.7-8.8,3.5c-2.8,0.8-5.7,1.2-8.7,1.3
			c-2.1,0-4.2-0.7-5.8-2c-1.8-1.6-2.7-3.9-2.5-6.2c0-0.7,0-1.3,0.1-2c0.1-0.7,0.2-1.3,0.4-2c0.1-0.5,0.4-1.1,0.6-1.6
			c0.2-0.4,0.5-0.6,0.9-0.6c0.3,0,0.6,0.1,0.9,0.3c0.3,0.2,0.7,0.4,1.1,0.6c0.6,0.2,1.2,0.4,1.9,0.6c1.1,0.2,2.2,0.3,3.3,0.3
			c2.7-0.1,5.3-0.7,7.7-1.8c2.7-1.2,5.3-2.8,7.6-4.7c2.3-1.9,4.3-4.1,5.9-6.7c1.5-2.4,2.3-5.1,2.3-7.9c0-1.1-0.2-2.2-0.6-3.2
			c-0.4-1.2-1.1-2.2-1.9-3.1c-1-1.1-2.2-1.9-3.5-2.5c-1.7-0.7-3.6-1-5.4-1c-3.9,0-7.8,0.8-11.4,2.5c-3.8,1.8-7.3,4.2-10.3,7.2
			c-3.3,3.2-6.3,6.8-8.8,10.7c-2.7,4.1-5,8.5-6.8,13.1c-1.9,4.8-3.3,9.7-4.3,14.8c-1,4.9-1.5,10-1.6,15c-0.1,5.6,0.5,11.2,1.6,16.7
			c0.9,4.4,2.4,8.6,4.5,12.6c1.6,3.1,3.9,5.9,6.8,8c2.4,1.8,5.4,2.8,8.4,2.8c3,0,6-0.6,8.8-1.8c2.6-1.2,5.1-2.8,7.2-4.7
			c2.2-2.1,4.1-4.4,5.6-7c1.6-2.6,2.9-5.3,4-8.1c1.1-2.7,1.9-5.5,2.5-8.3c0.5-2.5,0.8-5.1,0.8-7.6c0-1-0.1-2-0.2-3
			c-0.1-0.9-0.2-1.8-0.2-2.6c0-0.7,0.1-1.3,0.5-1.9c0.3-0.5,0.8-0.8,1.3-1c0.6-0.2,1.3-0.4,1.9-0.4c0.7,0,1.5,0,2.3,0
			c1,0,2,0.2,2.9,0.5c1.1,0.3,2.2,0.8,3.2,1.4c0.9,0.5,1.8,1.2,2.5,2.1c0.7,0.7,1,1.5,1.1,2.5c-0.5,4.6-0.8,9-0.9,13.2
			c-0.1,4.2-0.2,8.4-0.2,12.7c0,4.3,0,8.2,0,12.5s0,9.1,0,14.4c1.8-0.3,3.5-0.5,5.2-0.6l4.8-0.3c2.2,0,3.6,0.5,4.3,1.9
			c0.7,1.5,0.8,3.1,0.3,4.6c-0.5,1.8-1.4,3.4-2.6,4.8c-1.1,1.3-2.7,2.2-4.4,2.3c-1.4,0-2.7,0-4,0c-1.3,0-2.5,0.1-3.9,0.3
			c-0.2,3.2-0.5,6.5-0.8,9.8c-0.4,3.2-1,6.4-1.8,9.6c-0.8,3-1.9,5.9-3.2,8.7c-1.3,2.6-2.9,5-4.9,7.1c-2,2-4.4,3.7-7.1,4.8
			c-3.1,1.2-6.4,1.8-9.7,1.8c-3,0-5.9-0.5-8.7-1.5c-2.4-1-4.6-2.4-6.4-4.2c-1.8-1.8-3.3-4-4.2-6.4c-1-2.6-1.5-5.3-1.5-8
			c-0.1-4.1,0.9-8.1,2.9-11.6c2-3.4,4.6-6.5,7.8-8.9c3.4-2.7,7.1-4.9,11.1-6.5c4.2-1.8,8.4-3.3,12.8-4.5v-1.7c0-3.7,0-6.9-0.2-9.8
			S430.6,736.2,430.6,734.1z M417.8,791.5c2,0,3.9-0.7,5.4-2.1c1.6-1.6,2.9-3.5,3.7-5.7c1.1-2.6,1.9-5.4,2.4-8.1
			c0.6-3.3,1-6.6,1.2-9.9c-5.3,1.3-10.3,3.8-14.4,7.4c-3.2,2.8-5,6.9-4.9,11.1c-0.5,3.5,1.9,6.8,5.4,7.4c0.5,0.1,0.9,0.1,1.4,0.1
			L417.8,791.5z"/>
		<path class="st0" d="M515.1,737.5c1.8,0,3.6-0.6,4.9-1.8c1.4-1.4,2.7-2.9,3.6-4.7c1-1.9,1.9-3.9,2.5-6c0.6-2.2,1.2-4.2,1.6-6.1
			c0.2-1.4,0.9-2.8,1.9-3.9c0.7-0.8,1.7-1.2,2.7-1.2c0.8,0,1.6,0.2,2.3,0.6c1.6,0.9,2.9,2.3,3.7,4c0.4,0.8,0.6,1.6,0.6,2.5v0.4
			c0,0.3-0.1,0.5-0.2,0.7c-0.9,3-1.9,6-3.2,8.9c-1.4,3.1-3.1,6-5.3,8.6c-2.2,2.6-4.8,4.8-7.8,6.5c-3.2,1.8-6.9,2.7-10.6,2.6
			c-3,0.1-6-0.6-8.7-1.9c-2.3-1.2-4.3-2.9-5.8-5.1c-2,2-4.3,3.7-6.9,4.9c-2.9,1.4-6.1,2.1-9.3,2.1c-3.3,0.1-6.7-0.6-9.7-2
			c-2.7-1.3-5.1-3.1-7-5.5c-2-2.4-3.4-5.2-4.3-8.2c-1-3.3-1.5-6.7-1.4-10.1c-0.1-6.6,1.2-13.1,3.8-19.1c2.3-5.5,5.7-10.4,10-14.5
			c4.1-4,9-7.1,14.3-9.2c5.3-2.1,11-3.2,16.7-3.2c2.2-0.1,4.5,0.6,6.3,1.9c1.6,1.2,2.6,3.2,2.5,5.2c0.1,1-0.1,2.1-0.5,3.1
			c-0.4,0.6-1.1,1-1.9,0.9c-0.9,0-1.8-0.1-2.7-0.1c-0.9-0.1-1.9-0.2-2.8-0.2c-3.7,0-7.4,0.8-10.8,2.1c-3.7,1.5-7.1,3.7-9.9,6.5
			c-3.2,3.2-5.7,6.9-7.4,11.1c-2,5.1-3,10.6-2.9,16.1c-0.2,3.7,0.8,7.4,2.9,10.4c1.9,2.4,4.7,3.7,7.7,3.5c2.4,0.1,4.8-0.9,6.4-2.6
			c1.7-1.8,3.1-3.9,4.1-6.2v-26.4c0-0.7,0-1.4,0-2.1c-0.1-0.5-0.2-1-0.3-1.4c0-0.4-0.2-0.7-0.2-1c0-0.3,0-0.6,0-0.9
			c0-0.9,0.6-1.7,1.4-2.1c1-0.5,2.2-0.8,3.4-0.8c2.7-0.1,5.3,0.6,7.4,2.2c1.7,1.2,2.7,3.2,2.7,5.2v28.3c0,0.9,0.1,1.9,0.4,2.8
			c0.2,0.9,0.6,1.7,1.1,2.5c1.1,1.6,3,2.6,4.9,2.5L515.1,737.5z"/>
		<path class="st0" d="M528.5,687c0.1-1.2-0.1-2.4-0.4-3.5c-0.3-0.6-0.4-1.3-0.4-2c0.1-0.9,0.6-1.7,1.5-2.1c1.1-0.5,2.3-0.8,3.5-0.8
			c2.7-0.1,5.3,0.6,7.4,2.2c1.7,1.3,2.7,3.2,2.7,5.3v7.7c1.2-2.3,2.6-4.6,4.2-6.7c1.5-2,3.1-3.8,4.9-5.4c1.7-1.5,3.6-2.7,5.6-3.6
			c2-0.9,4.3-1.3,6.5-1.3c2.7-0.1,5.3,0.4,7.7,1.6c1.9,1,3.6,2.4,4.8,4.1c1.2,1.7,2,3.6,2.5,5.6c0.5,2,0.7,4,0.7,6v35.5
			c0,0.4,0,1,0,1.9c0.1,0.9,0.2,1.8,0.5,2.6c0.3,0.9,0.8,1.7,1.4,2.3c0.7,0.7,1.8,1.1,2.8,1c1.8,0,3.6-0.6,4.9-1.8
			c1.4-1.4,2.6-2.9,3.5-4.7c1-1.9,1.9-3.9,2.5-6c0.6-2.2,1.2-4.2,1.6-6.1c0.2-1.5,0.8-2.8,1.8-3.9c0.7-0.7,1.7-1.2,2.7-1.2
			c0.8,0,1.6,0.2,2.3,0.6c0.8,0.4,1.5,1,2.2,1.6c0.6,0.7,1.2,1.4,1.6,2.3c0.4,0.8,0.6,1.6,0.6,2.5v0.4c0,0.3-0.1,0.5-0.2,0.7
			c-0.9,3.1-1.9,6.1-3.2,9c-1.4,3.1-3.2,6-5.3,8.6c-2.2,2.6-4.8,4.8-7.8,6.5c-3.2,1.8-6.9,2.7-10.6,2.6c-2.3,0-4.6-0.4-6.7-1.3
			c-1.9-0.8-3.5-2-4.9-3.5c-1.4-1.5-2.4-3.2-3.1-5.1c-0.7-2-1.1-4.1-1.1-6.2V698c0-1.4,0-2.6,0-3.8c-0.1-1-0.2-2.1-0.5-3.1
			c-0.2-0.8-0.6-1.5-1.2-2.1c-0.6-0.6-1.4-0.8-2.2-0.8c-1.9,0.3-3.6,1.1-4.9,2.5c-2.2,1.9-4.2,4.1-5.8,6.5c-2,2.8-3.6,5.9-4.9,9
			c-1.4,3.2-2.3,6.6-2.7,10.1v25c0,0.8,0,1.7,0,2.5c0,0.8-0.2,1.6-0.6,2.3c-0.3,0.7-0.9,1.3-1.6,1.8c-0.9,0.5-2,0.8-3.1,0.7
			c-1,0-2-0.1-3-0.3c-1-0.2-2-0.5-2.9-1.1c-0.9-0.5-1.7-1.3-2.2-2.3c-0.6-1.2-1-2.5-0.9-3.9L528.5,687z"/>
		<path class="st0" d="M649.7,737.5c1.8,0,3.6-0.6,4.9-1.8c1.4-1.3,2.7-2.9,3.6-4.6c1-1.9,1.9-3.9,2.5-6c0.6-2.2,1.2-4.2,1.6-6.1
			c0.2-1.4,0.9-2.8,1.9-3.9c0.7-0.8,1.7-1.2,2.7-1.2c0.8,0,1.6,0.2,2.3,0.6c1.6,0.9,2.9,2.2,3.7,3.9c0.4,0.8,0.6,1.6,0.6,2.5v0.4
			c0,0.3-0.1,0.5-0.2,0.7c-0.9,3.1-2,6.1-3.3,9c-1.4,3.1-3.1,6-5.3,8.6c-2.2,2.6-4.8,4.8-7.8,6.5c-3.2,1.8-6.9,2.7-10.6,2.6
			c-3,0.1-6-0.6-8.7-1.9c-2.3-1.2-4.3-2.9-5.8-5.1c-2,2-4.3,3.7-6.9,4.9c-2.9,1.4-6.1,2.1-9.3,2.1c-3.3,0.1-6.7-0.6-9.7-2
			c-2.7-1.3-5.1-3.1-7-5.5c-2-2.4-3.4-5.2-4.3-8.2c-1-3.3-1.5-6.7-1.4-10.1c-0.1-6.6,1.2-13.1,3.8-19.1c2.3-5.5,5.7-10.4,9.9-14.5
			c4.1-4,9-7.1,14.3-9.2c5.3-2.1,11-3.2,16.7-3.2c2.2-0.1,4.5,0.6,6.3,1.9c1.6,1.2,2.6,3.2,2.5,5.2c0.1,1-0.1,2.1-0.5,3.1
			c-0.4,0.6-1.1,1-1.9,0.9c-0.9,0-1.8-0.1-2.7-0.1c-0.9-0.1-1.9-0.2-2.8-0.2c-3.7,0-7.4,0.8-10.8,2.1c-3.7,1.5-7.1,3.7-9.9,6.5
			c-3.1,3.2-5.6,7-7.3,11.1c-2,5.1-3,10.6-2.9,16.1c-0.2,3.7,0.8,7.4,2.9,10.4c1.9,2.4,4.8,3.8,7.8,3.6c2.4,0.1,4.8-0.9,6.4-2.6
			c1.7-1.8,3.1-3.9,4.1-6.2v-26.5c0-0.7,0-1.4,0-2.1c-0.1-0.5-0.2-1-0.3-1.4c-0.1-0.4-0.2-0.7-0.2-1c0-0.3,0-0.6,0-0.9
			c0-0.9,0.6-1.7,1.4-2.1c1.1-0.6,2.2-0.8,3.4-0.8c2.7-0.1,5.3,0.6,7.4,2.2c1.7,1.2,2.7,3.2,2.8,5.3v28.3c0,0.9,0.1,1.9,0.4,2.8
			c0.2,0.9,0.6,1.7,1.1,2.5c1.1,1.6,3,2.6,4.9,2.5L649.7,737.5z"/>
		<path class="st0" d="M693.3,748.8c-4.1,0-8.2-0.7-12.1-2.1c-3.9-1.4-7.4-3.5-10.4-6.2c-3.1-2.8-5.6-6.3-7.3-10.1
			c-1.9-4.4-2.8-9.2-2.7-14c0-4.9,0.8-9.8,2.3-14.5c1.4-4.5,3.6-8.8,6.3-12.7c2.6-3.6,5.9-6.7,9.7-9c3.7-2.3,8-3.4,12.4-3.4
			c2.9-0.1,5.7,0.5,8.3,1.8c2.1,1.1,4,2.5,5.5,4.3c1.4,1.6,2.4,3.5,3.1,5.5c0.6,1.7,0.9,3.4,1,5.2c0,1.1-0.3,2.1-1,3
			c-0.6,0.9-1.4,1.6-2.3,2.3c-0.9,0.6-2,1.1-3,1.4c-1,0.3-1.9,0.4-2.9,0.4c-0.8,0-1.5-0.3-2.1-0.8c-0.6-0.6-0.7-1.5-0.5-2.3
			c-0.3-0.9-0.5-1.8-0.7-2.7c-0.2-1.1-0.6-2.1-1.1-3.1c-0.5-1-1.3-1.8-2.2-2.5c-1.1-0.7-2.4-1.1-3.8-1c-1.9,0.1-3.6,0.9-4.9,2.2
			c-1.8,1.7-3.3,3.8-4.3,6.1c-1.3,2.9-2.4,5.9-3,9c-0.8,3.6-1.2,7.2-1.2,10.9c-0.1,3.1,0.4,6.1,1.4,9c0.8,2.5,2.2,4.7,4,6.6
			c1.7,1.8,3.8,3.2,6.1,4.1c2.4,0.9,5,1.4,7.7,1.4c3.3,0.1,6.6-0.6,9.6-1.9c2.6-1.2,5-2.9,7-4.9c1.9-2.1,3.5-4.4,4.6-7
			c1.1-2.5,1.9-5.1,2.5-7.8c0.2-1.6,1.2-3,2.6-3.8c1.3-0.6,2.7-0.8,4.1-0.4c1.4,0.3,2.6,1.1,3.6,2.1c1,1,1.4,2.5,1.2,3.9
			c-0.3,2-0.8,4-1.3,5.9c-0.7,2.4-1.6,4.6-2.8,6.8c-1.3,2.4-2.9,4.7-4.6,6.7c-2,2.3-4.3,4.3-6.9,5.9c-2.9,1.8-6.1,3.2-9.4,4.2
			C701.5,748.4,697.4,748.9,693.3,748.8z"/>
		<path class="st0" d="M719.1,638.5c0-1-0.1-2-0.3-2.9c-0.1-0.6-0.4-1.2-0.6-1.7c-0.2-0.4-0.4-0.7-0.6-1c-0.2-0.2-0.3-0.5-0.3-0.8
			c0-0.4,0.2-0.7,0.5-0.8c0.5-0.3,1-0.5,1.5-0.6c0.6-0.2,1.3-0.3,2-0.4c0.7-0.1,1.4-0.1,2.1-0.1c2.7-0.1,5.3,0.6,7.4,2.2
			c1.7,1.3,2.7,3.2,2.7,5.3v56.2c1.2-2.3,2.6-4.6,4.2-6.7c1.4-2,3.1-3.8,4.9-5.4c1.7-1.5,3.6-2.7,5.6-3.6c2-0.9,4.3-1.3,6.5-1.3
			c2.7-0.1,5.3,0.4,7.7,1.6c1.9,1,3.5,2.4,4.8,4.1c1.2,1.7,2,3.6,2.5,5.6c0.5,2,0.7,4,0.7,6v35.5c0,0.4,0,1,0,1.9
			c0.1,0.9,0.2,1.8,0.5,2.6c0.3,0.9,0.8,1.7,1.4,2.3c0.7,0.7,1.8,1.1,2.8,1c1.8,0,3.6-0.6,4.9-1.8c1.4-1.3,2.7-2.9,3.6-4.6
			c1-1.9,1.9-3.9,2.5-6c0.6-2.2,1.2-4.2,1.6-6.1c0.2-1.4,0.8-2.7,1.7-3.8c0.6-0.7,1.5-1.2,2.5-1.3c0.9-0.1,1.9,0.1,2.7,0.6
			c0.9,0.5,1.8,1.1,2.5,2c0.7,0.8,1.2,1.7,1.5,2.7c0.3,0.9,0.4,1.9,0.1,2.8c-0.9,3.1-2.1,6-3.4,9c-1.4,3.1-3.1,6-5.3,8.6
			c-2.1,2.6-4.8,4.8-7.7,6.5c-3.2,1.8-6.9,2.7-10.6,2.6c-2.3,0-4.6-0.4-6.7-1.3c-1.9-0.8-3.5-2-4.9-3.5c-1.4-1.5-2.4-3.2-3.1-5.1
			c-0.7-2-1.1-4.1-1.1-6.2v-34.6c0-1.4,0-2.6,0-3.8c-0.1-1-0.2-2.1-0.5-3.1c-0.2-0.8-0.6-1.5-1.2-2.1c-0.6-0.5-1.4-0.8-2.2-0.8
			c-1.9,0.2-3.6,1.1-4.9,2.5c-2.2,1.9-4.1,4.1-5.8,6.5c-2,2.8-3.6,5.9-4.9,9.1c-1.4,3.2-2.3,6.6-2.7,10.1v25c0,0.8,0,1.7,0,2.5
			c0,0.8-0.2,1.6-0.5,2.3c-0.3,0.7-0.9,1.3-1.6,1.8c-0.9,0.5-2,0.8-3.1,0.7c-1,0-2-0.1-3-0.3c-1-0.2-2-0.5-2.9-1.1
			c-0.9-0.5-1.7-1.3-2.2-2.3c-0.6-1.2-1-2.5-0.9-3.9L719.1,638.5z"/>
		<path class="st0" d="M831.8,694.2c0,3.4-0.6,6.7-1.8,9.9c-1.2,3.4-3,6.6-5.3,9.5c-2.5,3.1-5.4,5.8-8.7,8c-3.7,2.5-7.7,4.3-12,5.4
			c0.6,1.5,1.5,2.9,2.5,4.1c1,1.3,2.2,2.5,3.6,3.4c1.5,1,3.2,1.8,4.9,2.3c2.1,0.6,4.3,0.9,6.5,0.8c3.3,0.1,6.5-0.6,9.5-1.9
			c2.5-1.2,4.8-2.9,6.7-4.9c1.8-2.1,3.3-4.4,4.4-7c1.1-2.5,1.9-5.1,2.5-7.8c0.2-1.6,1.2-3,2.6-3.8c1.3-0.6,2.7-0.8,4.1-0.4
			c1.4,0.3,2.6,1.1,3.6,2.1c1,1,1.4,2.5,1.2,3.9c-0.3,2-0.7,4-1.2,5.9c-0.6,2.3-1.5,4.6-2.6,6.8c-1.2,2.4-2.7,4.7-4.5,6.7
			c-1.9,2.3-4.2,4.3-6.7,5.9c-2.9,1.8-6,3.2-9.3,4.2c-4,1.1-8.1,1.7-12.2,1.6c-4.2,0-8.4-0.8-12.4-2.3c-3.9-1.5-7.6-3.7-10.7-6.6
			c-3.2-3-5.7-6.6-7.4-10.6c-1.9-4.5-2.9-9.4-2.8-14.4c0-5.1,0.8-10.2,2.5-15.1c1.5-4.4,3.7-8.4,6.5-12.1c2.5-3.2,5.6-6,9.2-8
			c3.2-1.9,6.9-2.8,10.6-2.9c2.4,0,4.9,0.4,7.1,1.3c2,0.8,3.9,2,5.4,3.5c1.5,1.6,2.6,3.4,3.3,5.5
			C831.5,689.5,831.9,691.9,831.8,694.2z M801.4,714.4c0,0.5,0,1,0,1.5c0,0.5,0,1,0,1.6c2.3-1,4.5-2.3,6.5-3.9
			c1.9-1.5,3.6-3.3,4.9-5.4c2.8-4.1,4.3-9,4.2-14c0.1-1.5-0.3-3.1-1.1-4.4c-0.6-1-1.7-1.6-2.9-1.6c-1.5,0-2.9,0.5-4.1,1.4
			c-1.3,1-2.3,2.3-3.1,3.7c-0.9,1.6-1.7,3.4-2.2,5.2c-0.6,1.9-1,3.9-1.4,5.8c-0.4,1.8-0.6,3.7-0.7,5.6
			C801.4,711.5,801.4,713,801.4,714.4L801.4,714.4z"/>
		<path class="st1" d="M781.3,444.7c5.5,0,7.4-1.3,10-5.8c2.6-4.5,1.4-11.8,1.3-13.7c-0.2-4.4-1.7-9.2-1.9-11.6c0-1.5,0-11,0.2-14.8
			c3.3-61.5,29.7-76.1,37.3-77.7c4.9-1.4,10.1-1.1,14.7,1v-94l0,0v-1.3v-24.9c0-13.6-9.7-30.3-21.4-37.1L628.8,53.2
			c-11.9-6.9-31.3-6.9-42.9-0.1L393.4,164.3c-11.8,6.8-21.4,23.5-21.4,37.1v24.3c0,0.1,0,0.3,0,0.4v35.5c1.1,0.6,2.2,1.3,3.3,2
			c3.7,2.5,7.4,3.8,11.2,6.4c10.7,6.5,20.7,14.2,29.7,23c1.8,1.7,7.6,9.1,9,10.8c4.3,5.9,9,11.3,14.3,16.3c2.9,2.6,6.1,5,9.5,6.9
			c5.7,2.9,15,2.3,19.8,0.2c36.7-15.9,59.7-7.9,70.3-1.5c26.3,15.8,35,37.8,37.8,64.6c0.4,3.5,0.5,7,0.3,10.4
			c0,6.4-0.2,16.6,6.5,18.3c9.6,2.5,12-7.8,13.4-14.6c3.2-15.5,23.8-25.6,38.9-17.8c10.4,5.4,14.6,8.4,24.9,3.9
			c12.8-5.7,19.5-20.1,24-27.8c4.4-7.5,10.8-13.6,18.5-17.6c20-12.5,70.4-9.3,72.3,46.3c0,3,0,10.7,0,15.4c0,5.3,0.2,10.5-0.2,15.9
			c-0.2,3.6-0.9,7.4-1.2,11.2C774.3,433.8,772.4,444.7,781.3,444.7z"/>
		<path class="st0" d="M842.9,322.1c-1.4-0.4-5.3-3-14.6-1c-7.6,1.7-34,16.3-37.3,77.7c-0.2,3.8-0.3,13.3-0.2,14.8
			c0.2,2.5,1.7,7.3,1.9,11.6c0,2,1.5,9.2-1.3,13.7c-2.8,4.6-4.5,5.8-10,5.8c-8.9,0-7-10.9-7-10.9c0.3-3.7,1-7.4,1.2-11.2
			c0.3-5.5,0.2-10.6,0.2-15.9c0-4.7,0-12.4,0-15.4c-1.8-55.5-52.2-58.8-72.3-46.3c-7.7,4.1-14.1,10.1-18.5,17.6
			c-4.5,7.7-11.1,22.1-24,27.8c-10.3,4.5-14.5,1.5-24.9-3.9c-15.1-7.8-35.7,2.4-38.9,17.8c-1.4,6.8-3.8,17.1-13.4,14.6
			c-6.7-1.7-6.5-11.9-6.5-18.3c0.1-3.5,0-7-0.3-10.4c-2.8-26.8-11.6-48.8-37.8-64.6c-10.6-6.4-33.6-14.4-70.3,1.5
			c-4.9,2.1-14.2,2.8-19.8-0.2c-3.4-1.9-6.6-4.2-9.5-6.9c-5.3-5-10-10.5-14.3-16.3c-1.4-1.7-7.3-9.1-9-10.8c-9-8.7-19-16.4-29.7-23
			c-3.8-2.5-7.4-4.1-11.2-6.4c-1.1-0.7-2.2-1.3-3.3-2V424c0,13.6,9.7,30.3,21.4,37.1L586,572.5c11.8,6.8,31.1,6.8,42.8,0
			l192.7-111.2c11.8-6.8,21.4-23.5,21.4-37.1L842.9,322.1z"/>
		<path class="st2" d="M631.9,294.8c-13.3,7.7-35.1,7.7-48.4,0l-197-103.9c2.2,2.2,199.8,117,199.8,117c11.8,6.8,31.1,6.8,42.8,0
			c0,0,197.3-114.4,199.5-116.6L631.9,294.8z"/>
		<path class="st2" d="M583.2,68c13.3-7.6,35.1-7.6,48.5,0l23.9,9.9c-2.2-2.2-26.7-18-26.7-18c-11.8-6.8-31-6.8-42.8,0
			c0,0-39,22.9-41.3,25.1L583.2,68z"/>
	</g>
</g>
</svg>
